<svg aria-hidden="true" style="width:0;height:0;position:absolute;overflow:hidden" xmlns="http://www.w3.org/2000/svg"><defs><symbol id="icon-lollipop" viewBox="0 0 28 32"><path fill="#ffa5ba" style="fill:var(--color1,#ffa5ba)" d="M6.507.682c-2.81.589-4.991 2.897-5.702 6.037-.261 1.097-.249 3.209.012 4.409.581 2.666 1.873 5.032 3.912 7.087 1.826 1.847 3.426 2.966 5.963 4.132l1.328.623v8.414h1.423v-7.953l.356.104c.202.058.51.058.711 0l.356-.104v7.953h1.423v-8.426l1.268-.577c2.454-1.131 4.232-2.355 5.963-4.109 2.762-2.805 4.173-5.99 4.173-9.453.012-3.797-1.98-6.879-5.109-7.93C21.92.658 21.576.624 20.32.635c-1.316.012-1.612.058-2.608.369-1.174.381-2.324.981-3.082 1.604l-.439.369-.64-.473C11.903 1.292 10.22.703 8.24.623 7.552.6 6.77.623 6.509.681zM9.21 2.113a10.13 10.13 0 0 1 1.529.427c.759.312 2.027 1.108 2.525 1.581.771.727.984.716 1.861-.069 1.375-1.247 3.592-2.101 5.418-2.101 2.478 0 4.742 1.939 5.465 4.675.13.485.249 1.27.261 1.743.047 1.039.012 1.073-1.6 1.685-1.304.496-2.395.739-4.268.946-1.197.139-1.446.208-1.814.473-.759.566-.877.981-.877 3.336 0 1.766-.024 2.101-.202 2.285-.249.277-.688.265-.984-.023-.225-.219-.237-.381-.237-2.712 0-2.585-.071-3.024-.557-3.543-.107-.115-.948-.566-1.861-1.016-1.031-.485-2.063-1.085-2.679-1.558-2.976-2.228-4.292-2.863-6.734-3.243a33.294 33.294 0 0 1-1.316-.231c-.107-.081.533-.9 1.114-1.408 1.375-1.224 2.94-1.616 4.955-1.247zM5.286 6.569c1.209.3 2.573.981 3.817 1.904.522.381 1.186.866 1.482 1.085.794.589 2.11 1.327 3.106 1.743.486.208.948.45 1.031.554.107.127.142.854.142 2.666 0 2.181.036 2.551.225 2.955.391.831 1.02 1.212 1.98 1.212.616 0 1.043-.185 1.494-.658.51-.519.569-.843.569-3.047 0-2.505-.024-2.459 1.375-2.574 1.423-.127 3.189-.508 4.363-.935.593-.219 1.103-.369 1.126-.335.13.127-.759 2.389-1.28 3.266-.83 1.42-1.482 2.228-2.739 3.405-1.826 1.708-4.339 3.174-6.9 4.051l-.925.323-.913-.323c-2.739-.923-5.157-2.389-7.101-4.271-2.466-2.366-3.758-4.871-4.078-7.837-.119-1.108.059-3.013.332-3.463.095-.162 1.79.012 2.893.277z"/><path fill="none" stroke="#ffa5ba" style="stroke:var(--color1,#ffa5ba)" stroke-width=".615" d="M6.507.682c-2.81.589-4.991 2.897-5.702 6.037-.261 1.097-.249 3.209.012 4.409.581 2.666 1.873 5.032 3.912 7.087 1.826 1.847 3.426 2.966 5.963 4.132l1.328.623v8.414h1.423v-7.953l.356.104c.202.058.51.058.711 0l.356-.104v7.953h1.423v-8.426l1.268-.577c2.454-1.131 4.232-2.355 5.963-4.109 2.762-2.805 4.173-5.99 4.173-9.453.012-3.797-1.98-6.879-5.109-7.93C21.92.658 21.576.624 20.32.635c-1.316.012-1.612.058-2.608.369-1.174.381-2.324.981-3.082 1.604l-.439.369-.64-.473C11.903 1.292 10.22.703 8.24.623 7.552.6 6.77.623 6.509.681zM9.21 2.113a10.13 10.13 0 0 1 1.529.427c.759.312 2.027 1.108 2.525 1.581.771.727.984.716 1.861-.069 1.375-1.247 3.592-2.101 5.418-2.101 2.478 0 4.742 1.939 5.465 4.675.13.485.249 1.27.261 1.743.047 1.039.012 1.073-1.6 1.685-1.304.496-2.395.739-4.268.946-1.197.139-1.446.208-1.814.473-.759.566-.877.981-.877 3.336 0 1.766-.024 2.101-.202 2.285-.249.277-.688.265-.984-.023-.225-.219-.237-.381-.237-2.712 0-2.585-.071-3.024-.557-3.543-.107-.115-.948-.566-1.861-1.016-1.031-.485-2.063-1.085-2.679-1.558-2.976-2.228-4.292-2.863-6.734-3.243a33.294 33.294 0 0 1-1.316-.231c-.107-.081.533-.9 1.114-1.408 1.375-1.224 2.94-1.616 4.955-1.247zM5.286 6.569c1.209.3 2.573.981 3.817 1.904.522.381 1.186.866 1.482 1.085.794.589 2.11 1.327 3.106 1.743.486.208.948.45 1.031.554.107.127.142.854.142 2.666 0 2.181.036 2.551.225 2.955.391.831 1.02 1.212 1.98 1.212.616 0 1.043-.185 1.494-.658.51-.519.569-.843.569-3.047 0-2.505-.024-2.459 1.375-2.574 1.423-.127 3.189-.508 4.363-.935.593-.219 1.103-.369 1.126-.335.13.127-.759 2.389-1.28 3.266-.83 1.42-1.482 2.228-2.739 3.405-1.826 1.708-4.339 3.174-6.9 4.051l-.925.323-.913-.323c-2.739-.923-5.157-2.389-7.101-4.271-2.466-2.366-3.758-4.871-4.078-7.837-.119-1.108.059-3.013.332-3.463.095-.162 1.79.012 2.893.277z"/></symbol><symbol id="icon-burger" viewBox="0 0 46 32"><path d="M45.714 3.429H0V1.143h45.714v2.286zm0 13.714H0v-2.286h45.714v2.286zm0 13.714H0v-2.286h45.714v2.286z"/></symbol><symbol id="icon-close" viewBox="0 0 32 32">=======<path d="m15.974 17.414 12.788 13.28 1.44-1.388-12.788-13.28 13.28-12.788-1.388-1.44-13.28 12.788L3.24 1.306 1.8 2.694l12.788 13.28L1.308 28.76l1.388 1.44 13.28-12.786z"/></symbol><symbol id="icon-facebook" viewBox="0 0 32 32"><path fill="#fea5bb" style="fill:var(--color4,#fea5bb)" d="M16 32c8.837 0 16-7.163 16-16S24.837 0 16 0 0 7.163 0 16s7.163 16 16 16z"/><path fill="#fff" style="fill:var(--color3,#fff)" d="M20.446 15.981h-2.611V25.6H13.88v-9.619H12v-3.379h1.88v-2.187c0-1.564.739-4.014 3.991-4.014l2.929.012v3.281h-2.125c-.348 0-.839.176-.839.922v1.989h2.955l-.345 3.377z"/></symbol><symbol id="icon-fruit" viewBox="0 0 32 32"><path fill="#ffa5ba" style="fill:var(--color1,#ffa5ba)" d="M29.626 21.411c-1.292-.458-2.381-.344-3.242.018.145-.877.47-1.832 1.169-2.481a1.065 1.065 0 1 0-1.448-1.561c-1.229 1.14-1.706 2.749-1.874 4.081a3.929 3.929 0 0 0-1.035-.308l-.023-.003 1.89-9.83a1.064 1.064 0 0 0-1.045-1.266h-.205c.094-.5.141-.997.138-1.47-.016-1.994-.903-3.495-2.374-4.017-1.409-.5-2.589-.35-3.507.066.146-.976.495-2.063 1.282-2.794A1.065 1.065 0 1 0 17.904.285c-1.32 1.226-1.815 2.966-1.981 4.387-.735-.348-1.644-.526-2.709-.33-1.094-1.571-2.612-2.295-4.09-1.941-1.451.348-2.358 1.115-2.9 1.962-.41-.899-.712-2.001-.452-3.036A1.065 1.065 0 0 0 3.708.799l-.002.007c-.439 1.746.095 3.475.73 4.758-1.016.138-2.118.65-3.049 1.866-.578.755-.773 1.698-.596 2.7a1.066 1.066 0 0 0-.672 1.204l-.001-.007 3.809 19.809c.096.502.535.864 1.046.864H20.21c.51 0 .949-.362 1.046-.864l.037-.195c.287.198.595.364.927.486 1.267.472 2.447.278 3.044.118.316.084.795.179 1.364.179.506 0 1.084-.075 1.68-.297 2.36-.879 3.615-3.839 3.596-6.178-.015-1.904-.865-3.34-2.275-3.839zm-6.951-9.22c-.491 4.705-4.452 7.909-9.971 7.909s-9.481-3.204-9.971-7.909h19.942zm-6.643-4.676a1.048 1.048 0 0 0 1.862 0 2.66 2.66 0 0 1 .76-.771l.01-.006c.629-.408 1.35-.46 2.203-.157.851.301.952 1.518.956 2.027a5.74 5.74 0 0 1-.19 1.453h-7.126c.236-1.19.094-2.492-.289-3.669.392.022.751.149 1.055.351l-.008-.005c.31.205.567.465.763.767l.006.01zM3.077 8.724c.55-.719 1.183-1.069 1.933-1.069h.002c.57 0 1.016.207 1.066.232.341.189.749.172 1.078-.037.332-.211.51-.592.481-.983-.006-.077-.115-1.894 1.983-2.397.877-.211 1.626.754 1.906 1.178.808 1.221 1.222 3.108.777 4.413H2.955c-.141-.443-.179-.943.122-1.336zM5.852 29.87 3.741 18.893c.138.132.28.262.428.388 2.208 1.901 5.239 2.948 8.535 2.948s6.328-1.047 8.535-2.948l.152-.134-.431 2.243-.061.02c-1.411.5-2.261 1.935-2.276 3.839-.01 1.165.297 2.483.898 3.622l-.192.998H5.852zm21.71-.438c-.943.351-1.881.017-1.916.004a1.034 1.034 0 0 0-.775.003l.007-.003c-.01.004-.96.352-1.917-.004-1.338-.499-2.223-2.556-2.21-4.166.004-.465.095-1.578.858-1.849.279-.107.601-.17.937-.175h.002c1.107 0 1.658.812 1.782 1.024a1.046 1.046 0 0 0 1.862 0c.156-.265.977-1.468 2.721-.849.763.271.854 1.383.858 1.85.013 1.609-.872 3.667-2.21 4.165z"/></symbol><symbol id="icon-github" viewBox="0 0 32 32"><path fill="#fea5bb" style="fill:var(--color4,#fea5bb)" d="M32 16c0 8.837-7.163 16-16 16S0 24.837 0 16 7.163 0 16 0s16 7.163 16 16z"/><path fill="#fff" style="fill:var(--color3,#fff)" d="M16 6.588c-5.169 0-9.412 4.242-9.412 9.412 0 4.411 3.095 8.419 7.206 9.412v-3.114a2.307 2.307 0 0 1-1.197-.03c-.556-.164-1.008-.535-1.344-1.1-.214-.361-.593-.752-.988-.723l-.097-1.099c.855-.073 1.595.521 2.034 1.259.195.328.419.52.708.605.278.082.578.043.926-.08.088-.698.407-.959.648-1.326v-.001c-2.451-.366-3.428-1.666-3.816-2.693-.514-1.363-.238-3.066.671-4.142.018-.021.05-.076.037-.114-.417-1.258.091-2.299.11-2.41.481.142.559-.143 2.089.786l.264.159c.111.066.076.028.186.02A8.031 8.031 0 0 1 16 11.131a8.016 8.016 0 0 1 2.002.285l.086.009c-.007-.001.023-.005.075-.036 1.911-1.157 1.842-.779 2.355-.946.019.111.519 1.169.107 2.411-.056.171 1.657 1.739.708 4.256-.388 1.027-1.365 2.328-3.816 2.693v.001c.314.479.692.734.69 1.722v3.887c4.111-.993 7.206-5 7.206-9.412 0-5.169-4.242-9.412-9.412-9.412z"/></symbol><symbol id="icon-home" viewBox="0 0 35 32"><path fill="#d31342" style="fill:var(--color5,#d31342)" d="M34.473 15.38a1.482 1.482 0 0 0-.133-2.217l-.003-.002L18.736.425A2.037 2.037 0 0 0 17.486 0c-.489 0-.938.171-1.291.457l.004-.003L.545 13.836a1.47 1.47 0 0 0-.077 2.222l.001.001.393.378c.649.634 1.702.71 2.348.169l1.169-.977v14.31c0 .876.765 1.588 1.705 1.588h6.1c.943 0 1.705-.713 1.705-1.588v-10.01h7.782v10.046c0 .856.694 1.551 1.551 1.551l.052-.001h-.003 6.467c.94 0 1.702-.71 1.702-1.588V15.834s.326.262.724.591c.396.326 1.233.064 1.865-.585l.445-.457z"/></symbol><symbol id="icon-milk" viewBox="0 0 21 32"><path fill="#ffa5ba" style="fill:var(--color1,#ffa5ba)" d="M2.333.144c-.349.188-.552.563-.552 1.006.006.813.209 1.556.614 2.2l.178.294-.338.381c-.381.425-.473.581-.644 1.088-.141.412-.154 1.162-.031 1.581.429 1.437 1.854 2.269 3.247 1.9.473-.125.762-.282 1.203-.657l.375-.312.35.175c.196.1.528.243.742.324l.381.138v.7c0 1.106.227 1.763.81 2.356s1.498.9 2.291.762c.564-.1 1.117-.381 1.491-.762.584-.594.811-1.251.811-2.356v-.7l.387-.138a9.56 9.56 0 0 0 .737-.325l.349-.175.374.312c.442.375.731.531 1.203.657 1.394.369 2.819-.463 3.248-1.9.123-.419.111-1.169-.031-1.581-.172-.507-.264-.663-.644-1.088l-.337-.381.178-.294c.405-.643.608-1.388.614-2.2 0-.444-.204-.819-.553-1.006l-.264-.144H2.596l-.264.144zm14.736 1.955c0 .019-.179.313-.399.662-.651 1.032-.626 1.256.239 2.17.314.331.602.662.645.737.233.463-.234 1.038-.749.919-.124-.026-.394-.243-.787-.631-.786-.775-1.056-.863-1.658-.518-.694.399-1.578.806-2.008.924-.608.175-.817.307-.976.637-.129.256-.141.363-.141 1.363 0 1.231-.05 1.431-.399 1.6-.252.125-.301.125-.553 0-.35-.169-.399-.369-.399-1.6 0-1-.013-1.107-.135-1.363-.166-.324-.374-.462-.982-.637-.528-.15-1.308-.493-1.738-.774-.405-.262-.762-.363-1.043-.313-.185.038-.369.181-.86.662-.405.394-.694.625-.817.65-.509.119-.976-.463-.742-.919.043-.075.332-.406.644-.737.865-.913.89-1.137.239-2.169-.221-.349-.399-.643-.399-.662 0-.025 2.929-.037 6.508-.037s6.508.013 6.508.037zM.485 13.206c-.314.212-.485.512-.485.844 0 .225 3.119 16.925 3.229 17.275.055.194.282.425.522.55.227.125.387.125 6.809.125s6.582 0 6.809-.125c.239-.125.467-.356.522-.55.111-.35 3.229-17.05 3.229-17.275 0-.331-.172-.631-.485-.844l-.209-.144H.694l-.209.144zm18.21 2.275c-.061.5-.418 1.587-.682 2.081-1.283 2.375-3.715 3.819-6.729 3.987-2.278.132-4.205-.331-5.82-1.393a7.057 7.057 0 0 1-2.247-2.402l-.018-.035c-.307-.544-.712-1.713-.774-2.238l-.043-.356h16.356l-.043.356zM4.39 21.919c2.634 1.775 6.569 2.244 9.885 1.169a10.708 10.708 0 0 0 3.18-1.687c.276-.219.294-.219.264-.082-.019.081-.381 1.994-.804 4.244s-.78 4.156-.798 4.232l-.031.143H5.034l-.031-.143c-.018-.075-.374-1.981-.798-4.232s-.786-4.163-.804-4.243c-.031-.138-.013-.138.264.081.16.125.491.356.724.518z"/></symbol><symbol id="icon-telegram" viewBox="0 0 32 32"><path fill="#fea5bb" style="fill:var(--color4,#fea5bb)" d="M32 16c0 8.837-7.163 16-16 16S0 24.837 0 16 7.163 0 16 0s16 7.163 16 16z"/><path fill="#fff" style="fill:var(--color3,#fff)" d="m12.867 18.376-.317 4.169c.455 0 .651-.183.888-.401l2.13-1.901 4.414 3.018c.81.421 1.381.199 1.6-.696l2.897-12.673c.258-1.117-.433-1.554-1.221-1.28L6.226 14.698c-1.162.422-1.145 1.026-.198 1.301l4.355 1.264 10.114-5.907c.476-.295.909-.132.553.163l-8.182 6.856z"/></symbol><symbol id="icon-arrow-small" viewBox="0 0 22 32"><path d="M2.742.974A3.2 3.2 0 0 1 7.267.9l13.224 12.8a3.2 3.2 0 0 1 0 4.598l-13.224 12.8a3.2 3.2 0 0 1-4.451-4.599l10.849-10.501L2.816 5.497A3.2 3.2 0 0 1 2.742.972z"/></symbol><symbol id="icon-arrow" viewBox="0 0 42 32"><path d="M26.467.901A3.2 3.2 0 0 0 22.016 5.5l7.543 7.301H3.201a3.2 3.2 0 0 0 0 6.4h26.358l-7.543 7.301a3.2 3.2 0 0 0 4.451 4.599l13.224-12.8a3.2 3.2 0 0 0 0-4.598L26.467.903z"/></symbol></defs></svg>