<svg aria-hidden="true" style="position: absolute; width: 0; height: 0; overflow: hidden;" version="1.1" xmlns="http://www.w3.org/2000/svg" xmlns:xlink="http://www.w3.org/1999/xlink">
<defs>
<symbol id="three-dots" viewBox="0 0 133 32">
<path d="M81.515 16c0 8.837-6.843 16-15.285 16s-15.285-7.163-15.285-16c0-8.837 6.843-16 15.285-16s15.285 7.163 15.285 16z"></path>
<path d="M30.571 16c0 8.837-6.843 16-15.285 16s-15.285-7.163-15.285-16c0-8.837 6.843-16 15.285-16s15.285 7.163 15.285 16z"></path>
<path d="M132.459 16c0 8.837-6.843 16-15.285 16s-15.285-7.163-15.285-16c0-8.837 6.843-16 15.285-16s15.285 7.163 15.285 16z"></path>
</symbol>
</defs>
</svg>
